<svg xmlns="http://www.w3.org/2000/svg" viewBox="0 0 960 540" role="img" aria-labelledby="title desc">
  <title id="title">Calculus Casebook: límites y continuidad</title>
  <desc id="desc">Una carretera, cámaras de tráfico y una trayectoria matemática con un salto.</desc>
  <rect width="960" height="540" fill="#16242d"/>
  <path d="M0 405 C190 330 300 450 475 340 S760 225 960 275" fill="none" stroke="#d8d0bd" stroke-width="92"/>
  <path d="M0 405 C190 330 300 450 475 340 S760 225 960 275" fill="none" stroke="#f5c84c" stroke-width="5" stroke-dasharray="28 22"/>
  <path d="M120 290 C270 190 375 270 465 210" fill="none" stroke="#5fb1c8" stroke-width="10"/>
  <path d="M505 155 C650 80 735 155 865 105" fill="none" stroke="#5fb1c8" stroke-width="10"/>
  <circle cx="465" cy="210" r="14" fill="#fff"/>
  <circle cx="505" cy="155" r="14" fill="#b7483f"/>
  <g transform="translate(410 315)">
    <rect x="0" y="18" width="128" height="55" rx="14" fill="#b7483f"/>
    <path d="M24 18 L45 0 H92 L110 18" fill="#d9685f"/>
    <circle cx="28" cy="73" r="15" fill="#111"/><circle cx="101" cy="73" r="15" fill="#111"/>
    <rect x="47" y="41" width="42" height="16" rx="3" fill="#f4f1e9"/>
  </g>
  <text x="58" y="78" fill="#f4f1e9" font-family="system-ui, sans-serif" font-size="45" font-weight="700">CALCULUS CASEBOOK</text>
  <text x="60" y="125" fill="#9ed3df" font-family="system-ui, sans-serif" font-size="28">Límites · Continuidad · Pruebas insuficientes</text>
</svg>
